<svg id="Layer_1" xmlns="http://www.w3.org/2000/svg" viewBox="0 0 427 427"><style>.st1{fill:none;stroke:#fff;stroke-width:14;stroke-miterlimit:10}</style><path d="M319.6 364.6H169.4c-25.9 0-46.9-21-46.9-46.9V111.4c0-25.9 21-46.9 46.9-46.9h150.3c25.9 0 46.9 21 46.9 46.9v206.4c-.1 25.8-21.1 46.8-47 46.8z"/><path d="M307.6 374.4H157.4c-25.9 0-46.9-21-46.9-46.9V121.2c0-25.9 21-46.9 46.9-46.9h150.3c25.9 0 46.9 21 46.9 46.9v206.4c-.1 25.9-21.1 46.8-47 46.8z" fill="#fff"/><path d="M294.6 385.5H144.4c-25.9 0-46.9-21-46.9-46.9V132.3c0-25.9 21-46.9 46.9-46.9h150.3c25.9 0 46.9 21 46.9 46.9v206.4c-.1 25.8-21.1 46.8-47 46.8z"/><path class="st1" d="M149.8 151.1h139.4M149.8 184.1h139.4M149.8 217.1h139.4M149.8 250.1h139.4M149.8 283.1h139.4M149.8 316.1h139.4"/></svg>